<svg width="283" height="314" viewBox="0 0 283 314" fill="none" xmlns="http://www.w3.org/2000/svg">
<path d="M276.711 141.3C276.711 66.7305 216.175 6.28 141.5 6.28C66.825 6.28 6.28889 66.7305 6.28889 141.3V307.72H276.711V141.3ZM283 314H0V141.3C0 63.2622 63.3517 0 141.5 0C219.648 0 283 63.2622 283 141.3V314Z" fill="#F6F2E8"/>
<path fill-rule="evenodd" clip-rule="evenodd" d="M62.8907 186.462L91.404 214.897L97.408 267.98L131.727 263.629L173.709 276.32L192.386 247.704L194.956 186.387L182.062 113.663L159.23 55.7581L138.382 50.24L97.408 111.06L62.8907 186.462ZM101.225 263.219L95.9304 216.408L109.525 202.586L129.616 215.292L163.865 268.905L132.105 259.304L101.225 263.219ZM131.979 206.689L113.907 195.261L137.006 114.303L157.211 99.762L169.081 165.12L131.979 206.689ZM155.865 90.2054L131.858 107.482L105.35 106.971L140.272 55.1357L154.991 59.0299L155.865 90.2054ZM68.051 185.555L100.186 115.356L127.565 115.884L105.004 194.957L91.374 208.815L68.051 185.555ZM164.574 91.8768L164.248 80.2538L177.869 114.801L188.429 174.359L177.723 164.278L164.574 91.8768ZM188.108 246.385L190.55 188.121L173.979 172.519L138.15 212.661L173.748 268.387L188.108 246.385ZM97.408 267.98L131.727 263.629L173.709 276.32L192.386 247.704L194.956 186.387L182.062 113.663L159.23 55.7581L138.382 50.24L97.408 111.06L62.8907 186.462L91.404 214.897L97.408 267.98Z" fill="#F6F2E8"/>
</svg>

