<?xml version="1.0" encoding="UTF-8"?>
<svg id="Layer_2" data-name="Layer 2" xmlns="http://www.w3.org/2000/svg" viewBox="0 0 226.52 124.24">
  <defs>
    <style>
      .cls-1 {
        fill: #fff;
      }
    </style>
  </defs>
  <g id="Layer_1-2" data-name="Layer 1">
    <g>
      <path class="cls-1" d="m40.39,81.7c0,5.21-2.73,11.45-6.17,14.9-3.53,2.65-7.94,4.41-15.71,4.41h-8.82v21.96H0v-60.59h16.67c9.78,0,13.94,1.76,17.55,4.32,4.49,3.53,6.17,8.82,6.17,14.99m-9.7,0c0-7.06-5.21-12.27-12.18-12.27-2.64,0-5.37.8-8.01,2.65v19.23c2.65,1.84,5.37,1.77,8.01,1.77,5.21,0,8.74-1.69,11.38-6.17,0-.88.8-2.57.8-3.45v-1.76Z"/>
      <path class="cls-1" d="m44.99,106.13c6.81-15.34,13.76-23.01,20.85-23.01,2.83,0,4.88,1.18,6.14,3.55,1.26,2.37,1.89,6.2,1.89,11.51l.03,4.12c0,7.13,1.05,10.75,3.15,10.87,1.69.07,4.36-1.96,8.01-6.11,3.64-4.13,7.35-9.33,11.13-15.6l2.85,1.58c-3.7,7.33-7.88,13.54-12.53,18.62-4.65,5.07-8.49,7.61-11.51,7.61-2.81,0-4.84-1.31-6.07-3.94-1.23-2.63-1.85-6.92-1.85-12.89v-3.05c0-6.9-1.19-10.36-3.56-10.36-3.36,0-7.65,4.63-12.86,13.89-5.26,9.33-7.89,14.86-7.89,16.6,0,.57.22,1.13.65,1.68-1.03.57-2.37.86-4.01.86-2.03,0-3.05-.9-3.05-2.71,0-1.25.72-5.06,2.16-11.42.04-.21.34-1.68.89-4.42l7.03-35.39c-1.53.57-3.07.85-4.63.85-4.44,0-6.65-2.61-6.65-7.85,2.19,1.65,4.74,2.47,7.64,2.47,4.09,0,8.03-.82,11.8-2.47l-5.62,28.36c-.07.32-1.12,4.57-3.15,12.76-.16.68-.44,1.99-.82,3.91"/>
      <path class="cls-1" d="m126.26,95.91c.07.55.1,1.04.1,1.48,0,6.61-2.24,12.37-6.72,17.28-4.48,4.91-9.73,7.37-15.74,7.37-4.59,0-8.34-1.47-11.23-4.41-2.89-2.94-4.34-6.75-4.34-11.43,0-5.33,1.87-9.95,5.6-13.86,3.74-3.91,8.14-5.86,13.22-5.86.78,0,1.6.11,2.47.31-.57-1.03-.86-1.89-.86-2.6,0-1.1.38-2.15,1.13-3.15,5.58.46,10.22,3.31,13.92,8.57,3.79,2.58,7.75,3.87,11.86,3.87,2.68,0,5.57-.9,8.68-2.71l1.71,2.92c-3.63,2.54-7.36,3.81-11.18,3.81-2.54,0-5.42-.53-8.64-1.58m-7.79-2.91c-1.9-.57-3.65-1.49-5.25-2.75-1.17-.24-2.14-.37-2.91-.38-3.89,0-7.33,1.75-10.34,5.25-3,3.49-4.51,7.48-4.51,11.97,0,3.25.91,5.91,2.73,8.01,1.81,2.09,4.15,3.14,7.01,3.14,3.86,0,7.19-1.95,9.97-5.85,2.79-3.89,4.18-8.54,4.19-13.93,0-1.87-.3-3.7-.89-5.45Z"/>
      <path class="cls-1" d="m156.7,108.15c0,4.77,1.53,7.64,5.84,7.64,6.83,0,7.91-6.83,7.91-16.17v-3.06h-.18c-2.16,3.24-6.38,5.39-11.95,5.39-11.32,0-15.55-8.45-15.55-19.86,0-14.55,6.38-22.73,20.58-22.73,17.79,0,20.04,14.19,20.04,29.74,0,18.06-.36,35.13-21.39,35.13-9.17,0-17.52-3.86-17.7-16.09h12.4Zm6.02-15.73c5.12,0,7.1-3.42,7.1-12.04-.09-7.28-1.08-12.58-7.1-12.58s-7.01,5.39-7.01,12.58c0,8.62,1.97,12.04,7.01,12.04Z"/>
      <path class="cls-1" d="m199.84,108.15c0,4.77,1.53,7.64,5.84,7.64,6.83,0,7.91-6.83,7.91-16.17v-3.06h-.18c-2.16,3.24-6.38,5.39-11.95,5.39-11.32,0-15.54-8.45-15.54-19.86,0-14.55,6.38-22.73,20.58-22.73,17.79,0,20.04,14.19,20.04,29.74,0,18.06-.36,35.13-21.39,35.13-9.16,0-17.52-3.86-17.7-16.09h12.4Zm6.02-15.73c5.12,0,7.1-3.42,7.1-12.04-.09-7.28-1.08-12.58-7.1-12.58s-7.01,5.39-7.01,12.58c0,8.62,1.98,12.04,7.01,12.04Z"/>
      <path class="cls-1" d="m200.57,45.73c-6.06-3.25-12.05-6.61-18.04-9.97-5.99-3.37-12.01-6.68-17.95-10.12l-17.85-10.28-17.78-10.4,2.86-.35-14.92,15.23-15,15.15c-9.99,10.11-20.06,20.14-30.16,30.15l-2.16-4.47c10.25-1.17,20.51-2.22,30.77-3.29,10.25-1.11,20.53-2.06,30.8-3.08,10.27-.96,20.54-1.94,30.83-2.77,10.29-.82,20.57-1.74,30.87-2.41-10.19,1.69-20.4,3.13-30.61,4.66-10.21,1.54-20.43,2.92-30.66,4.31-10.23,1.35-20.45,2.76-30.69,4.01-10.24,1.28-20.47,2.59-30.72,3.78l-7.44.86,5.27-5.33c10.01-10.09,20.03-20.17,30.13-30.17l15.14-15.01,15.22-14.93,1.33-1.31,1.53.97,17.43,10.99,17.36,11.1c5.79,3.69,11.51,7.5,17.25,11.27,5.75,3.76,11.49,7.54,17.17,11.41"/>
      <path class="cls-1" d="m127.29,12.26c4.52,2.37,8.93,4.91,13.33,7.47,4.41,2.54,8.74,5.21,13.07,7.87,4.31,2.7,8.62,5.41,12.86,8.23l6.34,4.24c2.08,1.47,4.2,2.89,6.25,4.4-2.27-1.17-4.47-2.43-6.71-3.65l-6.61-3.81c-4.41-2.55-8.74-5.22-13.07-7.88-4.31-2.71-8.61-5.41-12.85-8.24-4.25-2.81-8.47-5.64-12.6-8.64"/>
      <path class="cls-1" d="m122.16,18.38c4.52,2.31,8.93,4.79,13.32,7.3,4.41,2.49,8.74,5.1,13.08,7.71,4.31,2.65,8.62,5.29,12.86,8.06l6.35,4.15c2.08,1.45,4.2,2.83,6.25,4.32-2.27-1.14-4.47-2.38-6.71-3.56l-6.61-3.73c-4.41-2.49-8.74-5.1-13.07-7.71-4.31-2.65-8.62-5.3-12.86-8.07-4.24-2.75-8.47-5.53-12.6-8.48"/>
      <path class="cls-1" d="m118.28,24.79c3.51,1.79,6.92,3.74,10.32,5.71,3.41,1.96,6.73,4.04,10.06,6.11,3.3,2.12,6.61,4.23,9.84,6.47l4.84,3.36c1.58,1.17,3.19,2.3,4.74,3.52-1.77-.88-3.47-1.85-5.21-2.77l-5.11-2.94c-3.4-1.96-6.73-4.03-10.06-6.12-3.3-2.12-6.61-4.23-9.84-6.48-3.24-2.22-6.46-4.46-9.58-6.88"/>
      <path class="cls-1" d="m113.22,30.81c5.25,2.49,10.21,5.44,15.09,8.5,4.86,3.11,9.64,6.33,14.13,10.02-5.25-2.48-10.21-5.43-15.09-8.5-4.85-3.11-9.64-6.34-14.12-10.02"/>
      <path class="cls-1" d="m105.95,36.74c4.18,1.75,8.08,3.96,11.9,6.28,3.79,2.37,7.52,4.86,10.95,7.82-4.18-1.74-8.08-3.96-11.9-6.28-3.79-2.38-7.52-4.86-10.95-7.82"/>
      <path class="cls-1" d="m99.61,41.18c3.39,1.26,6.49,2.98,9.53,4.82,3,1.88,5.93,3.88,8.58,6.35-3.39-1.25-6.49-2.98-9.53-4.82-3-1.89-5.94-3.88-8.58-6.35"/>
      <path class="cls-1" d="m94.38,46.17c2.26.56,4.23,1.58,6.12,2.72,1.87,1.19,3.67,2.48,5.17,4.25-2.26-.56-4.22-1.58-6.12-2.72-1.87-1.19-3.66-2.49-5.17-4.25"/>
      <path class="cls-1" d="m134.87,11.5c-3.1,3.6-6.34,7.07-9.6,10.5-3.25,3.46-6.6,6.81-9.94,10.16-3.38,3.33-6.76,6.64-10.23,9.87l-5.22,4.83c-1.79,1.56-3.54,3.17-5.36,4.69,1.54-1.82,3.15-3.55,4.73-5.32l4.87-5.18c3.25-3.45,6.59-6.81,9.94-10.16,3.38-3.32,6.76-6.64,10.24-9.86,3.47-3.24,6.95-6.45,10.58-9.52"/>
      <path class="cls-1" d="m141.51,15.74c-3.12,3.56-6.38,6.97-9.66,10.36-3.26,3.4-6.63,6.71-9.99,10.01-3.4,3.27-6.79,6.55-10.28,9.71l-5.25,4.75c-1.79,1.54-3.54,3.12-5.38,4.61,1.55-1.79,3.18-3.5,4.76-5.25l4.9-5.11c3.27-3.41,6.63-6.71,10-10.01,3.4-3.27,6.79-6.54,10.29-9.71,3.48-3.18,6.98-6.35,10.62-9.37"/>
      <path class="cls-1" d="m147.04,20.53c-4.64,5.68-9.67,10.99-14.79,16.2-5.16,5.17-10.42,10.24-16.07,14.93,4.64-5.69,9.66-10.99,14.79-16.2,5.17-5.17,10.42-10.25,16.07-14.93"/>
      <path class="cls-1" d="m153.58,24.68c-3.27,4.31-6.93,8.24-10.68,12.08-3.79,3.8-7.68,7.5-11.96,10.81,3.27-4.32,6.92-8.25,10.68-12.08,3.79-3.79,7.68-7.5,11.96-10.81"/>
      <path class="cls-1" d="m162.21,28.28c-2.47,3.43-5.33,6.47-8.28,9.43-2.99,2.91-6.07,5.72-9.54,8.14,2.47-3.44,5.32-6.48,8.28-9.42,2.99-2.91,6.08-5.72,9.54-8.14"/>
      <path class="cls-1" d="m169.53,30.76c-1.85,2.83-4.1,5.26-6.43,7.6-2.37,2.3-4.84,4.51-7.69,6.32,1.85-2.83,4.09-5.26,6.42-7.6,2.37-2.3,4.84-4.51,7.69-6.32"/>
      <path class="cls-1" d="m175.94,33.99c-.97,1.96-2.32,3.51-3.77,4.98-1.49,1.43-3.07,2.76-5.04,3.69.97-1.95,2.33-3.51,3.77-4.98,1.49-1.42,3.07-2.76,5.04-3.7"/>
    </g>
  </g>
</svg>