<svg width="106" height="90" viewBox="0 0 106 90" fill="none" xmlns="http://www.w3.org/2000/svg">
<g clip-path="url(#clip0_3342_7274)">
<path d="M1.07249 29.5566L15.828 13.1464L20.3646 1.41053L53.4364 9.77202M1.07249 29.5566L4.07728 43.5443L29.2774 63.6793M1.07249 29.5566L37.2846 29.5566M29.2774 63.6793L64.0269 80.8716L95.5275 89.2891M29.2774 63.6793L44.2353 60.9826M95.5275 89.2891L104.223 82.2568L90.9465 46.165M95.5275 89.2891L79.7262 78.3595M90.9465 46.165L69.5205 8.24961L53.4364 9.77202M90.9465 46.165L79.7262 60.9826M53.4364 9.77202L50.9754 24.228M37.2846 29.5566L50.9754 24.228M37.2846 29.5566L44.2353 60.9826M50.9754 24.228L79.7262 60.9826M79.7262 60.9826L79.7262 78.3595M79.7262 78.3595L44.2353 60.9826" stroke="#F6F2E8"/>
</g>
<defs>
<clipPath id="clip0_3342_7274">
<rect width="106" height="90" fill="white"/>
</clipPath>
</defs>
</svg>


