<svg width="106" height="99" viewBox="0 0 106 99" fill="none" xmlns="http://www.w3.org/2000/svg">
<g clip-path="url(#clip0_3342_7268)">
<path d="M10.266 1L46.0728 45.3372M10.266 1L56.5005 16.1652M10.266 1L76.1942 5.32035M10.266 1L1 57.9774M46.0728 45.3372L1 57.9774M46.0728 45.3372L60.9237 57.5561M1 57.9774L60.6078 97.4702M60.6078 97.4702L60.9237 57.5561M60.6078 97.4702L105.05 36.2827M60.9237 57.5561L70.5073 28.0657M70.5073 28.0657L56.5005 16.1652M70.5073 28.0657L105.05 36.2827M56.5005 16.1652L76.1942 5.32035M76.1942 5.32035L105.05 36.2827" stroke="#F6F2E8"/>
</g>
<defs>
<clipPath id="clip0_3342_7268">
<rect width="106" height="99" fill="white"/>
</clipPath>
</defs>
</svg>


