<svg width="74" height="68" viewBox="0 0 74 68" fill="none" xmlns="http://www.w3.org/2000/svg">
<g clip-path="url(#clip0_3037_6666)">
<path opacity="0.3" d="M7.41182 67L32.1891 36.6667M7.41182 67L39.4049 56.6247M7.41182 67L53.0324 64.0442M7.41182 67L1 28.019M32.1891 36.6667L1 28.019M32.1891 36.6667L42.4656 28.3072M1 28.019L42.247 1M42.247 1L42.4656 28.3072M42.247 1L73 42.8614M42.4656 28.3072L49.0972 48.483M49.0972 48.483L39.4049 56.6247M49.0972 48.483L73 42.8614M39.4049 56.6247L53.0324 64.0442M53.0324 64.0442L73 42.8614" stroke="#F6F2E8"/>
</g>
<defs>
<clipPath id="clip0_3037_6666">
<rect width="74" height="68" fill="white"/>
</clipPath>
</defs>
</svg>


