<svg width="65" height="84" viewBox="0 0 65 84" fill="none" xmlns="http://www.w3.org/2000/svg">
<g clip-path="url(#clip0_3342_7271)">
<path d="M31.1955 83.1781L13.924 77.0255M31.1955 83.1781L63.6323 41.6208M31.1955 83.1781L53.3115 35.6057M13.924 77.0255L8.86894 62.7773M13.924 77.0255L34.3914 39.6779M63.6323 41.6208L47.3085 6.97174M63.6323 41.6208L53.3115 35.6057M47.3085 6.97174L34.3914 1M47.3085 6.97174L53.3115 35.6057M47.3085 6.97174L29.1945 21.5216M34.3914 1L5.39356 14.2038M34.3914 1L1.63189 6.95361M53.3115 35.6057L34.3914 39.6779M8.86894 62.7773L29.1945 21.5216M8.86894 62.7773L1 58.4414M29.1945 21.5216L34.3914 39.6779M29.1945 21.5216L5.39356 14.2038M5.39356 14.2038L1 58.4414M5.39356 14.2038L1.63189 6.95361M1.63189 6.95361V37.5008L1 58.4414" stroke="#F6F2E8"/>
</g>
<defs>
<clipPath id="clip0_3342_7271">
<rect width="65" height="84" fill="white"/>
</clipPath>
</defs>
</svg>


