<svg xmlns:xlink="http://www.w3.org/1999/xlink" xmlns="http://www.w3.org/2000/svg" width="458" height="567" viewBox="0 0 458 567" fill="none">
<path opacity="0.1" d="M437.458 172.996L324.1 173.758C319.535 119.649 285.299 92.9758 221.392 92.9758C194.003 92.9758 172.701 98.3105 157.485 108.98C142.269 119.649 133.9 134.891 133.9 154.706C133.9 160.802 135.422 166.899 136.944 172.234C139.226 176.806 143.03 181.379 148.355 185.952C154.442 190.524 159.767 193.573 165.093 196.621C171.179 199.669 179.548 202.718 190.199 205.766C200.85 208.815 210.741 211.863 219.87 214.911C229 217.198 241.173 220.246 257.15 224.819C273.887 228.629 287.581 232.44 299.754 236.25C353.01 251.492 393.332 270.544 419.199 293.407C445.066 316.27 458 349.04 458 391.718C458 422.202 451.914 449.637 438.98 472.5C426.807 495.363 409.309 513.653 388.007 527.371C366.704 541.089 343.12 550.996 317.252 557.093C291.385 563.189 263.997 567 235.086 567C162.05 567 104.229 549.472 63.1462 515.94C22.0631 482.407 0.760797 434.395 0 373.427H117.924C120.206 441.254 161.289 475.548 240.412 475.548C271.605 475.548 295.95 468.69 314.209 455.734C332.468 442.778 340.837 425.25 340.837 403.149C340.837 384.097 333.229 370.379 316.492 361.996C299.754 352.851 265.518 341.419 212.262 326.177C209.219 325.415 206.937 324.653 205.415 324.653C203.894 323.891 202.372 323.129 199.329 322.367C197.046 321.605 194.764 320.843 192.482 320.843C174.223 315.508 162.05 311.698 154.442 309.411C147.595 307.125 136.183 303.315 120.967 297.98C105.751 291.883 94.3389 287.31 87.4917 282.738C79.8837 278.165 71.5149 271.306 60.8638 263.685C50.2126 255.302 43.3654 246.919 38.8007 237.774C34.2359 228.629 29.6711 217.96 25.8671 205.004C22.0631 192.048 20.5415 178.331 20.5415 163.089C20.5415 113.552 39.5615 73.9234 77.6013 44.2016C115.641 15.242 165.854 0 229 0C289.864 0 339.316 14.4799 378.116 43.4395C416.156 72.3992 435.937 115.077 437.458 172.996Z" fill="#AFA69D"/>
</svg>
